<svg width="18" height="15" viewBox="0 0 18 15" fill="none" xmlns="http://www.w3.org/2000/svg">
<path fill-rule="evenodd" clip-rule="evenodd" d="M15.25 2.375H13.0844L12.0195 0.778125C11.9037 0.60447 11.7088 0.500125 11.5 0.5H6.5C6.29124 0.500125 6.09633 0.60447 5.98047 0.778125L4.91484 2.375H2.75C1.71447 2.375 0.875 3.21447 0.875 4.25V13C0.875 14.0355 1.71447 14.875 2.75 14.875H15.25C16.2855 14.875 17.125 14.0355 17.125 13V4.25C17.125 3.21447 16.2855 2.375 15.25 2.375ZM15.875 13C15.875 13.3452 15.5952 13.625 15.25 13.625H2.75C2.40482 13.625 2.125 13.3452 2.125 13V4.25C2.125 3.90482 2.40482 3.625 2.75 3.625H5.25C5.45903 3.62514 5.6543 3.52076 5.77031 3.34688L6.83437 1.75H11.1648L12.2297 3.34688C12.3457 3.52076 12.541 3.62514 12.75 3.625H15.25C15.5952 3.625 15.875 3.90482 15.875 4.25V13ZM9 4.875C7.10152 4.875 5.5625 6.41402 5.5625 8.3125C5.5625 10.211 7.10152 11.75 9 11.75C10.8985 11.75 12.4375 10.211 12.4375 8.3125C12.4353 6.41491 10.8976 4.87715 9 4.875ZM9 10.5C7.79188 10.5 6.8125 9.52062 6.8125 8.3125C6.8125 7.10438 7.79188 6.125 9 6.125C10.2081 6.125 11.1875 7.10438 11.1875 8.3125C11.1875 9.52062 10.2081 10.5 9 10.5Z" fill="#171412"/>
</svg>
